<svg xmlns="http://www.w3.org/2000/svg" width="900" height="560" viewBox="0 0 900 560">
  <rect width="900" height="560" rx="34" fill="#fffdf7"/>
  <circle cx="140" cy="90" r="58" fill="#d8f1d4" opacity="0.8"/>
  <circle cx="770" cy="86" r="70" fill="#e7f5fb" opacity="0.85"/>
  <circle cx="742" cy="450" r="82" fill="#f8e7bd" opacity="0.62"/>
  <ellipse cx="450" cy="314" rx="315" ry="158" fill="#f7fbff" stroke="#9fc8d3" stroke-width="10"/>
  <ellipse cx="450" cy="290" rx="276" ry="106" fill="#ffffff" stroke="#c5dfe6" stroke-width="6"/>
  <path d="M240 305 C330 250 455 245 566 288 C623 310 660 332 680 361 C612 445 291 445 222 361 C224 340 229 322 240 305Z" fill="#edf7f1"/>
  <g fill="#76b96b" stroke="#3d7f4d" stroke-width="5">
    <ellipse cx="320" cy="288" rx="62" ry="28" transform="rotate(-18 320 288)"/>
    <ellipse cx="410" cy="273" rx="60" ry="27" transform="rotate(14 410 273)"/>
    <ellipse cx="535" cy="292" rx="64" ry="29" transform="rotate(-8 535 292)"/>
    <ellipse cx="595" cy="342" rx="58" ry="26" transform="rotate(18 595 342)"/>
    <ellipse cx="366" cy="358" rx="62" ry="28" transform="rotate(8 366 358)"/>
    <ellipse cx="475" cy="366" rx="64" ry="29" transform="rotate(-16 475 366)"/>
  </g>
  <g fill="#e9fff0" opacity="0.92">
    <ellipse cx="320" cy="288" rx="34" ry="14" transform="rotate(-18 320 288)"/>
    <ellipse cx="410" cy="273" rx="33" ry="13" transform="rotate(14 410 273)"/>
    <ellipse cx="535" cy="292" rx="34" ry="14" transform="rotate(-8 535 292)"/>
    <ellipse cx="595" cy="342" rx="31" ry="13" transform="rotate(18 595 342)"/>
    <ellipse cx="366" cy="358" rx="33" ry="13" transform="rotate(8 366 358)"/>
    <ellipse cx="475" cy="366" rx="35" ry="14" transform="rotate(-16 475 366)"/>
  </g>
  <g fill="none" stroke="#2d6858" stroke-width="18" stroke-linecap="round" opacity="0.95">
    <path d="M285 345 C318 302 347 343 382 301"/>
    <path d="M430 322 C458 285 486 325 520 287"/>
    <path d="M510 366 C544 326 574 370 621 319"/>
  </g>
  <g fill="#f4f0dd" stroke="#d3c38c" stroke-width="3">
    <circle cx="381" cy="318" r="9"/><circle cx="436" cy="345" r="8"/><circle cx="553" cy="329" r="8"/><circle cx="505" cy="260" r="7"/><circle cx="302" cy="353" r="7"/>
  </g>
  <text x="450" y="104" text-anchor="middle" font-family="Hiragino Sans, Noto Sans JP, sans-serif" font-size="44" font-weight="700" fill="#3c555a">きゅうりとわかめの酢の物</text>
  <text x="450" y="150" text-anchor="middle" font-family="Hiragino Sans, Noto Sans JP, sans-serif" font-size="24" fill="#6b8785">梅雨の時期にも食べやすい、さっぱり副菜</text>
</svg>